<mxfile host="Electron" agent="Mozilla/5.0 (Windows NT 10.0; Win64; x64) AppleWebKit/537.36 (KHTML, like Gecko) draw.io/27.0.5 Chrome/134.0.6998.205 Electron/35.3.0 Safari/537.36" version="27.0.5">
  <diagram name="Page-1" id="kpyM_fuStaAJjkCsyEh1">
    <mxGraphModel dx="570" dy="340" grid="1" gridSize="10" guides="1" tooltips="1" connect="1" arrows="1" fold="1" page="1" pageScale="1" pageWidth="827" pageHeight="1169" math="1" shadow="0">
      <root>
        <mxCell id="0" />
        <mxCell id="1" parent="0" />
        <mxCell id="XhQaNzLNdamN5gsf8l3S-2" value="" style="rounded=0;whiteSpace=wrap;html=1;dashed=1;" vertex="1" parent="1">
          <mxGeometry x="180" y="180" width="100" height="190" as="geometry" />
        </mxCell>
        <mxCell id="XhQaNzLNdamN5gsf8l3S-3" value="&lt;b&gt;Stack&lt;/b&gt;" style="text;html=1;align=center;verticalAlign=middle;resizable=0;points=[];autosize=1;strokeColor=none;fillColor=none;" vertex="1" parent="1">
          <mxGeometry x="200" y="180" width="60" height="30" as="geometry" />
        </mxCell>
        <mxCell id="XhQaNzLNdamN5gsf8l3S-4" value="s1" style="rounded=0;whiteSpace=wrap;html=1;" vertex="1" parent="1">
          <mxGeometry x="200" y="240" width="30" height="30" as="geometry" />
        </mxCell>
        <mxCell id="XhQaNzLNdamN5gsf8l3S-5" value="$$\bullet$$" style="rounded=0;whiteSpace=wrap;html=1;" vertex="1" parent="1">
          <mxGeometry x="230" y="240" width="30" height="30" as="geometry" />
        </mxCell>
        <mxCell id="XhQaNzLNdamN5gsf8l3S-6" value="main" style="text;html=1;align=center;verticalAlign=middle;resizable=0;points=[];autosize=1;strokeColor=none;fillColor=none;" vertex="1" parent="1">
          <mxGeometry x="205" y="210" width="50" height="30" as="geometry" />
        </mxCell>
        <mxCell id="XhQaNzLNdamN5gsf8l3S-23" value="s2" style="rounded=0;whiteSpace=wrap;html=1;" vertex="1" parent="1">
          <mxGeometry x="200" y="310" width="30" height="30" as="geometry" />
        </mxCell>
        <mxCell id="XhQaNzLNdamN5gsf8l3S-24" value="$$\bullet$$" style="rounded=0;whiteSpace=wrap;html=1;" vertex="1" parent="1">
          <mxGeometry x="230" y="310" width="30" height="30" as="geometry" />
        </mxCell>
        <mxCell id="XhQaNzLNdamN5gsf8l3S-25" value="print_string" style="text;html=1;align=center;verticalAlign=middle;resizable=0;points=[];autosize=1;strokeColor=none;fillColor=none;" vertex="1" parent="1">
          <mxGeometry x="190" y="280" width="80" height="30" as="geometry" />
        </mxCell>
        <mxCell id="XhQaNzLNdamN5gsf8l3S-26" value="" style="endArrow=classic;html=1;rounded=0;exitX=1;exitY=0.5;exitDx=0;exitDy=0;entryX=1;entryY=1;entryDx=0;entryDy=0;curved=1;" edge="1" parent="1" target="XhQaNzLNdamN5gsf8l3S-5">
          <mxGeometry width="50" height="50" relative="1" as="geometry">
            <mxPoint x="247" y="325.0000000000001" as="sourcePoint" />
            <mxPoint x="260" y="270" as="targetPoint" />
            <Array as="points">
              <mxPoint x="307" y="325" />
              <mxPoint x="307" y="270" />
            </Array>
          </mxGeometry>
        </mxCell>
        <mxCell id="XhQaNzLNdamN5gsf8l3S-42" value="" style="rounded=0;whiteSpace=wrap;html=1;dashed=1;" vertex="1" parent="1">
          <mxGeometry x="405.5" y="200" width="70" height="70" as="geometry" />
        </mxCell>
        <mxCell id="XhQaNzLNdamN5gsf8l3S-43" value="&lt;b&gt;Heap&lt;/b&gt;" style="text;html=1;align=center;verticalAlign=middle;resizable=0;points=[];autosize=1;strokeColor=none;fillColor=none;" vertex="1" parent="1">
          <mxGeometry x="410" y="200" width="50" height="30" as="geometry" />
        </mxCell>
        <mxCell id="XhQaNzLNdamN5gsf8l3S-45" value="" style="endArrow=classic;html=1;rounded=0;curved=1;" edge="1" parent="1">
          <mxGeometry width="50" height="50" relative="1" as="geometry">
            <mxPoint x="247" y="255.78947368421052" as="sourcePoint" />
            <mxPoint x="420" y="235" as="targetPoint" />
            <Array as="points">
              <mxPoint x="327" y="240" />
            </Array>
          </mxGeometry>
        </mxCell>
        <mxCell id="XhQaNzLNdamN5gsf8l3S-49" value="" style="rounded=0;whiteSpace=wrap;html=1;" vertex="1" parent="1">
          <mxGeometry x="420" y="228" width="41" height="14" as="geometry" />
        </mxCell>
        <mxCell id="XhQaNzLNdamN5gsf8l3S-52" value="&quot;Hello&quot;" style="text;html=1;align=center;verticalAlign=middle;resizable=0;points=[];autosize=1;strokeColor=none;fillColor=none;" vertex="1" parent="1">
          <mxGeometry x="410" y="220" width="60" height="30" as="geometry" />
        </mxCell>
        <mxCell id="XhQaNzLNdamN5gsf8l3S-46" value="Untitled Layer" parent="0" />
      </root>
    </mxGraphModel>
  </diagram>
</mxfile>
